<svg preserveAspectRatio="none" width="100%" height="100%" overflow="visible" style="display: block;" viewBox="0 0 13.3333 16.6667" fill="none" xmlns="http://www.w3.org/2000/svg">
<path id="Exclude" fill-rule="evenodd" clip-rule="evenodd" d="M6.66667 0.416667C6.66667 0.186548 6.48012 0 6.25 0H3.33333C1.49238 0 0 1.49238 0 3.33333V13.3333C0 15.1743 1.49238 16.6667 3.33333 16.6667H10C11.8409 16.6667 13.3333 15.1743 13.3333 13.3333V7.08333C13.3333 6.85321 13.1468 6.66667 12.9167 6.66667H10.8333C8.53215 6.66667 6.66667 4.80119 6.66667 2.5V0.416667ZM12.6829 5C12.96 5 13.1591 4.73244 13.026 4.48942C12.913 4.28308 12.7704 4.09194 12.6011 3.92259L9.41074 0.732233C9.2414 0.562886 9.05026 0.420344 8.84391 0.307336C8.60089 0.174239 8.33333 0.373371 8.33333 0.650457V2.5C8.33333 3.88071 9.45262 5 10.8333 5H12.6829ZM6.66667 7.5C7.1269 7.5 7.5 7.8731 7.5 8.33333V10H9.16667C9.6269 10 10 10.3731 10 10.8333C10 11.2936 9.6269 11.6667 9.16667 11.6667H7.5V13.3333C7.5 13.7936 7.1269 14.1667 6.66667 14.1667C6.20643 14.1667 5.83333 13.7936 5.83333 13.3333V11.6667H4.16667C3.70643 11.6667 3.33333 11.2936 3.33333 10.8333C3.33333 10.3731 3.70643 10 4.16667 10H5.83333V8.33333C5.83333 7.8731 6.20643 7.5 6.66667 7.5Z" fill="var(--fill-0, white)" fill-opacity="0.25"/>
</svg>
