<svg preserveAspectRatio="none" width="100%" height="100%" overflow="visible" style="display: block;" viewBox="0 0 20 19" fill="none" xmlns="http://www.w3.org/2000/svg">
<path id="Rectangle 14 (Stroke)" fill-rule="evenodd" clip-rule="evenodd" d="M0 5C0 2.23858 2.23858 0 5 0H15C17.7614 0 20 2.23858 20 5V14C20 16.7614 17.7614 19 15 19H5C2.23858 19 0 16.7614 0 14V5ZM5 2C3.34315 2 2 3.34315 2 5V14C2 15.6569 3.34315 17 5 17H15C16.6569 17 18 15.6569 18 14V5C18 3.34315 16.6569 2 15 2H5Z" fill="var(--fill-0, #2B2B2B)"/>
</svg>
