<svg preserveAspectRatio="none" width="100%" height="100%" overflow="visible" style="display: block;" viewBox="0 0 10.9091 13.6364" fill="none" xmlns="http://www.w3.org/2000/svg">
<path id="Union" fill-rule="evenodd" clip-rule="evenodd" d="M2.04545 2.72727C2.04545 1.22104 3.2665 0 4.77273 0H6.13636C7.64259 0 8.86364 1.22104 8.86364 2.72727V6.81818C8.86364 8.32441 7.64259 9.54545 6.13636 9.54545H4.77273C3.2665 9.54545 2.04545 8.32441 2.04545 6.81818V2.72727ZM0.681818 5.45455C1.05838 5.45455 1.36364 5.75981 1.36364 6.13636V6.81818C1.36364 8.70097 2.88994 10.2273 4.77273 10.2273H5.45455H6.13636C8.01915 10.2273 9.54545 8.70097 9.54545 6.81818V6.13636C9.54545 5.75981 9.85071 5.45455 10.2273 5.45455C10.6038 5.45455 10.9091 5.75981 10.9091 6.13636V6.81818C10.9091 9.45409 8.77227 11.5909 6.13636 11.5909V12.9545C6.13636 13.3311 5.8311 13.6364 5.45455 13.6364C5.07799 13.6364 4.77273 13.3311 4.77273 12.9545L4.77273 11.5909C2.13682 11.5909 0 9.45409 0 6.81818V6.13636C0 5.75981 0.30526 5.45455 0.681818 5.45455Z" fill="var(--fill-0, #303030)"/>
</svg>
