<svg preserveAspectRatio="none" width="100%" height="100%" overflow="visible" style="display: block;" viewBox="0 0 14 18" fill="none" xmlns="http://www.w3.org/2000/svg">
<path id="Union" d="M3 8.44531H2V16H12V8.44531H11V6.44531H12C13.1046 6.44531 14 7.34074 14 8.44531V16C13.9998 17.0355 13.2127 17.888 12.2041 17.9902L12 18H2L1.7959 17.9902C0.787325 17.888 0.000203416 17.0355 0 16V8.44531C3.09896e-07 7.34074 0.895431 6.44531 2 6.44531H3V8.44531ZM11.207 4.22754L9.79297 5.64844L8 3.84668V12.4736H6V3.84668L4.20703 5.64844L2.79297 4.22754L7 0L11.207 4.22754Z" fill="var(--fill-0, #BDC0C6)"/>
</svg>
