<svg preserveAspectRatio="none" width="100%" height="100%" overflow="visible" style="display: block;" viewBox="0 0 8 10" fill="none" xmlns="http://www.w3.org/2000/svg">
<path id="Union" d="M4.09863 0C5.59853 0 6.81422 1.24342 6.81445 2.77734V3.26172C7.49083 3.40187 7.99983 4.01402 8 4.74707V8.48438C8 9.32117 7.33675 9.99999 6.51855 10H1.48145C0.663262 9.99998 0 9.32116 0 8.48438V4.74707C0.000189351 3.94439 0.610789 3.28929 1.38281 3.2373V2.77734C1.38305 1.24348 2.59882 9.34514e-05 4.09863 0ZM4.09863 1.21191C3.25338 1.21201 2.56859 1.91291 2.56836 2.77734V3.23242H5.62988V2.77734C5.62965 1.91286 4.94396 1.21191 4.09863 1.21191Z" fill="var(--fill-0, white)"/>
</svg>
