<svg preserveAspectRatio="none" width="100%" height="100%" overflow="visible" style="display: block;" viewBox="0 0 17.0996 10.7002" fill="none" xmlns="http://www.w3.org/2000/svg">
<path id="Combined Shape" d="M1.5 6.7002C1.77879 6.7002 1.91826 6.6996 2.03418 6.72266C2.51021 6.81734 2.88187 7.18999 2.97656 7.66602C2.99961 7.78193 3 7.92144 3 8.2002V9.2002C3 9.47886 2.99961 9.61848 2.97656 9.73438C2.88178 10.2102 2.51005 10.5821 2.03418 10.6768C1.91826 10.6998 1.77879 10.7002 1.5 10.7002C1.22121 10.7002 1.08174 10.6998 0.96582 10.6768C0.48995 10.5821 0.118223 10.2102 0.0234375 9.73438C0.000385105 9.61848 1.19764e-09 9.47886 0 9.2002V8.2002C0 7.92144 0.000388227 7.78193 0.0234375 7.66602C0.118125 7.18999 0.489792 6.81734 0.96582 6.72266C1.08174 6.6996 1.22121 6.7002 1.5 6.7002ZM6.2998 4.7002C6.57845 4.7002 6.7181 4.69964 6.83398 4.72266C7.31001 4.81734 7.68266 5.18999 7.77734 5.66602C7.80036 5.7819 7.7998 5.92156 7.7998 6.2002V9.2002C7.7998 9.47886 7.8004 9.61848 7.77734 9.73438C7.6826 10.2103 7.30996 10.5821 6.83398 10.6768C6.71808 10.6998 6.57854 10.7002 6.2998 10.7002C6.02113 10.7002 5.88152 10.6998 5.76562 10.6768C5.28983 10.582 4.918 10.2102 4.82324 9.73438C4.80019 9.61848 4.7998 9.47886 4.7998 9.2002V6.2002C4.7998 5.92146 4.8002 5.78192 4.82324 5.66602C4.91792 5.19004 5.28968 4.8174 5.76562 4.72266C5.88152 4.6996 6.02113 4.7002 6.2998 4.7002ZM10.9004 2.40039C11.1792 2.40039 11.3187 2.39979 11.4346 2.42285C11.9106 2.51755 12.2823 2.8902 12.377 3.36621C12.3999 3.482 12.4004 3.62121 12.4004 3.89941V9.2002C12.4004 9.4788 12.4 9.6185 12.377 9.73438C12.2821 10.2102 11.9104 10.5821 11.4346 10.6768C11.3187 10.6998 11.1792 10.7002 10.9004 10.7002C10.6216 10.7002 10.4821 10.6998 10.3662 10.6768C9.89036 10.5821 9.51865 10.2102 9.42383 9.73438C9.40078 9.6185 9.40039 9.4788 9.40039 9.2002V3.90039C9.40039 3.62186 9.40084 3.48206 9.42383 3.36621C9.51851 2.8902 9.89021 2.51755 10.3662 2.42285C10.4821 2.39979 10.6216 2.40039 10.9004 2.40039ZM15.5996 0C15.8784 0 16.0179 0.000379849 16.1338 0.0234375C16.6097 0.118162 16.9814 0.489906 17.0762 0.96582C17.0992 1.08174 17.0996 1.22121 17.0996 1.5V9.2002C17.0996 9.47886 17.0992 9.61848 17.0762 9.73438C16.9814 10.2102 16.6097 10.5821 16.1338 10.6768C16.0179 10.6998 15.8784 10.7002 15.5996 10.7002C15.3208 10.7002 15.1813 10.6998 15.0654 10.6768C14.5896 10.5821 14.2178 10.2102 14.123 9.73438C14.1 9.61848 14.0996 9.47886 14.0996 9.2002V1.5C14.0996 1.22121 14.1 1.08174 14.123 0.96582C14.2178 0.489906 14.5895 0.118162 15.0654 0.0234375C15.1813 0.000379849 15.3208 0 15.5996 0Z" fill="var(--fill-0, white)"/>
</svg>
