<svg preserveAspectRatio="none" width="100%" height="100%" overflow="visible" style="display: block;" viewBox="0 0 15 15" fill="none" xmlns="http://www.w3.org/2000/svg">
<g id="Group 33489">
<path id="Vector 5 (Stroke)" fill-rule="evenodd" clip-rule="evenodd" d="M0 7.5C0 7.03976 0.373096 6.66667 0.833333 6.66667H14.1667C14.6269 6.66667 15 7.03976 15 7.5C15 7.96024 14.6269 8.33333 14.1667 8.33333H0.833333C0.373096 8.33333 0 7.96024 0 7.5Z" fill="var(--fill-0, #FF5623)"/>
<path id="Vector 6 (Stroke)" fill-rule="evenodd" clip-rule="evenodd" d="M7.5 3.64262e-08C7.96024 5.65438e-08 8.33333 0.373096 8.33333 0.833333L8.33333 14.1667C8.33333 14.6269 7.96024 15 7.5 15C7.03976 15 6.66667 14.6269 6.66667 14.1667L6.66667 0.833333C6.66667 0.373096 7.03976 1.63085e-08 7.5 3.64262e-08Z" fill="var(--fill-0, #FF5623)"/>
</g>
</svg>
