<svg preserveAspectRatio="none" width="100%" height="100%" overflow="visible" style="display: block;" viewBox="0 0 16.6667 16.6667" fill="none" xmlns="http://www.w3.org/2000/svg">
<g id="Group 33509">
<path id="Vector (Stroke)" fill-rule="evenodd" clip-rule="evenodd" d="M7.5 1.66667C4.27834 1.66667 1.66667 4.27834 1.66667 7.5C1.66667 10.7217 4.27834 13.3333 7.5 13.3333C10.7217 13.3333 13.3333 10.7217 13.3333 7.5C13.3333 4.27834 10.7217 1.66667 7.5 1.66667ZM0 7.5C0 3.35786 3.35786 0 7.5 0C11.6421 0 15 3.35786 15 7.5C15 11.6421 11.6421 15 7.5 15C3.35786 15 0 11.6421 0 7.5Z" fill="var(--fill-0, #A9A9A9)"/>
<path id="Vector (Stroke)_2" fill-rule="evenodd" clip-rule="evenodd" d="M11.9107 11.9107C12.2362 11.5853 12.7638 11.5853 13.0893 11.9107L16.4226 15.2441C16.748 15.5695 16.748 16.0972 16.4226 16.4226C16.0972 16.748 15.5695 16.748 15.2441 16.4226L11.9107 13.0893C11.5853 12.7638 11.5853 12.2362 11.9107 11.9107Z" fill="var(--fill-0, #A9A9A9)"/>
</g>
</svg>
