<svg preserveAspectRatio="none" width="100%" height="100%" overflow="visible" style="display: block;" viewBox="0 0 24 24" fill="none" xmlns="http://www.w3.org/2000/svg">
<g id="Frame">
<g id="Vector">
<path fill-rule="evenodd" clip-rule="evenodd" d="M13.2242 5.05526C13.0208 5.00643 12.7931 5 12.0118 5H9.8C8.94342 5 8.36113 5.00078 7.91104 5.03755C7.47262 5.07337 7.24842 5.1383 7.09202 5.21799C6.71569 5.40973 6.40973 5.71569 6.21799 6.09202C6.1383 6.24842 6.07337 6.47262 6.03755 6.91104C6.00078 7.36113 6 7.94342 6 8.8V12H4L4 8.7587C3.99999 7.95373 3.99998 7.28937 4.04419 6.74817C4.09012 6.18608 4.18868 5.66937 4.43597 5.18404C4.81947 4.43139 5.43139 3.81947 6.18404 3.43597C6.66937 3.18868 7.18608 3.09012 7.74817 3.04419C8.28937 2.99998 8.95373 2.99999 9.7587 3L12.0118 3C12.0462 3 12.0801 2.99998 12.1137 2.99997C12.7487 2.99967 13.2284 2.99944 13.6911 3.11052C14.0993 3.20851 14.4895 3.37012 14.8474 3.58944C15.2531 3.83807 15.5922 4.17749 16.041 4.62672C16.0647 4.65043 16.0887 4.67445 16.113 4.69878L18.3012 6.88701C18.3255 6.91134 18.3496 6.93533 18.3733 6.95903C18.8225 7.40782 19.1619 7.74693 19.4106 8.15265C19.6299 8.51054 19.7915 8.90071 19.8895 9.30886C20.0006 9.77155 20.0003 10.2513 20 10.8863C20 10.9199 20 10.9538 20 10.9882V15.2413C20 16.0463 20 16.7106 19.9558 17.2518C19.9099 17.8139 19.8113 18.3306 19.564 18.816C19.1805 19.5686 18.5686 20.1805 17.816 20.564C17.3306 20.8113 16.8139 20.9099 16.2518 20.9558C15.7106 21 15.0463 21 14.2413 21H13V19H14.2C15.0566 19 15.6389 18.9992 16.089 18.9624C16.5274 18.9266 16.7516 18.8617 16.908 18.782C17.2843 18.5903 17.5903 18.2843 17.782 17.908C17.8617 17.7516 17.9266 17.5274 17.9624 17.089C17.9992 16.6389 18 16.0566 18 15.2V10.9882C18 10.2069 17.9936 9.97916 17.9447 9.77575C17.8957 9.57168 17.8149 9.37659 17.7053 9.19764C17.596 9.01928 17.4395 8.85373 16.887 8.30122L14.6988 6.11299C14.1463 5.56048 13.9807 5.40402 13.8024 5.29472C13.6234 5.18506 13.4283 5.10425 13.2242 5.05526Z" fill="var(--fill-0, #303030)"/>
<path fill-rule="evenodd" clip-rule="evenodd" d="M5.52566 16.5257L6.43079 13.8103H7.56921L8.47434 16.5257L11.1897 17.4308V18.5692L8.47434 19.4743L7.56921 22.1897H6.43079L5.52566 19.4743L2.81026 18.5692V17.4308L5.52566 16.5257Z" fill="var(--fill-0, #303030)"/>
<path fill-rule="evenodd" clip-rule="evenodd" d="M14 5V9H18V11H13C12.4477 11 12 10.5523 12 10V5H14Z" fill="var(--fill-0, #303030)"/>
</g>
</g>
</svg>
