<svg preserveAspectRatio="none" width="100%" height="100%" overflow="visible" style="display: block;" viewBox="0 0 15.7118 16.6667" fill="none" xmlns="http://www.w3.org/2000/svg">
<path id="Union (Stroke)" fill-rule="evenodd" clip-rule="evenodd" d="M5.13059 2.11753C5.13059 0.948052 6.07864 0 7.24812 0H8.46367C9.63315 0 10.5812 0.948052 10.5812 2.11753C10.5812 2.28702 10.6981 2.51314 10.9774 2.66485C11.0634 2.71153 11.1481 2.76008 11.2317 2.81043C11.5103 2.97838 11.7718 2.9676 11.9254 2.87974C12.9452 2.29622 14.2448 2.64444 14.8362 3.65968L15.4233 4.6673C16.0159 5.6845 15.6661 6.98971 14.6443 7.57435C14.4962 7.65912 14.3569 7.8747 14.3637 8.19552C14.3647 8.24136 14.3652 8.2873 14.3652 8.33333C14.3652 8.37937 14.3647 8.42533 14.3637 8.47118C14.3569 8.79199 14.4962 9.00757 14.6443 9.09233C15.6661 9.67696 16.0158 10.9822 15.4232 11.9993L14.8362 13.007C14.2447 14.0222 12.9452 14.3704 11.9253 13.7869C11.7718 13.6991 11.5103 13.6883 11.2317 13.8562C11.1481 13.9066 11.0634 13.9551 10.9774 14.0018C10.6981 14.1535 10.5812 14.3796 10.5812 14.5491C10.5812 15.7186 9.63315 16.6667 8.46367 16.6667H7.24812C6.07864 16.6667 5.13059 15.7186 5.13059 14.5491C5.13059 14.3796 5.01371 14.1535 4.73437 14.0018C4.64841 13.9551 4.56364 13.9066 4.4801 13.8562C4.20151 13.6883 3.93999 13.6991 3.78644 13.7869C2.76661 14.3704 1.46704 14.0222 0.875586 13.007L0.288551 11.9993C-0.304039 10.9821 0.0456779 9.67695 1.06746 9.09232C1.2156 9.00756 1.35488 8.79198 1.34809 8.47118C1.34712 8.42533 1.34664 8.37938 1.34664 8.33333C1.34664 8.2873 1.34712 8.24136 1.34809 8.19553C1.35488 7.87471 1.21559 7.65913 1.06744 7.57436C0.0456502 6.98972 -0.304069 5.68451 0.288528 4.66731L0.875544 3.65969C1.467 2.64444 2.76658 2.29623 3.78642 2.87975C3.93997 2.96761 4.2015 2.97839 4.4801 2.81044C4.56363 2.76008 4.64841 2.71153 4.73437 2.66485C5.01371 2.51314 5.13059 2.28702 5.13059 2.11753ZM7.24812 1.66667C6.99911 1.66667 6.79725 1.86853 6.79725 2.11753C6.79725 3.03924 6.20936 3.76038 5.5298 4.12945C5.46583 4.16419 5.40274 4.20032 5.34056 4.23781C4.67767 4.63742 3.75933 4.78445 2.95871 4.32636C2.73341 4.19745 2.44631 4.27438 2.31565 4.49866L1.72863 5.50628C1.60195 5.72374 1.67671 6.00277 1.89515 6.12775C2.69708 6.58659 3.03075 7.45724 3.01439 8.23077C3.01367 8.26486 3.0133 8.29905 3.0133 8.33333C3.0133 8.36763 3.01367 8.40183 3.01439 8.43592C3.03075 9.20945 2.69708 10.0801 1.89516 10.5389C1.67674 10.6639 1.60198 10.9429 1.72866 11.1604L2.31569 12.168C2.44635 12.3923 2.73344 12.4692 2.95873 12.3403C3.75935 11.8822 4.67768 12.0293 5.34057 12.4289C5.40274 12.4663 5.46584 12.5025 5.5298 12.5372C6.20936 12.9063 6.79725 13.6274 6.79725 14.5491C6.79725 14.7981 6.99911 15 7.24812 15H8.46367C8.71268 15 8.91454 14.7981 8.91454 14.5491C8.91454 13.6274 9.50243 12.9063 10.182 12.5372C10.246 12.5025 10.309 12.4663 10.3712 12.4289C11.0341 12.0293 11.9524 11.8822 12.7531 12.3403C12.9783 12.4692 13.2654 12.3923 13.3961 12.168L13.9831 11.1604C14.1098 10.9429 14.0351 10.6639 13.8166 10.5389C13.0147 10.0801 12.681 9.20946 12.6974 8.43593C12.6981 8.40184 12.6985 8.36764 12.6985 8.33333C12.6985 8.29904 12.6981 8.26485 12.6974 8.23077C12.681 7.45723 13.0147 6.58658 13.8166 6.12774C14.0351 6.00276 14.1098 5.72373 13.9832 5.50627L13.3961 4.49866C13.2655 4.27437 12.9784 4.19744 12.7531 4.32635C11.9525 4.78445 11.0341 4.63741 10.3712 4.2378C10.309 4.20032 10.246 4.16419 10.182 4.12945C9.50243 3.76038 8.91454 3.03924 8.91454 2.11753C8.91454 1.86853 8.71268 1.66667 8.46367 1.66667H7.24812Z" fill="var(--fill-0, #5E5E5E)" fill-opacity="0.8"/>
</svg>
